<mxfile host="app.diagrams.net" agent="Mozilla/5.0 (Windows NT 10.0; Win64; x64) AppleWebKit/537.36 (KHTML, like Gecko) Chrome/130.0.0.0 Safari/537.36 Edg/130.0.0.0" version="24.8.4">
  <diagram name="Page-1" id="lqmxrOgyMsYPpVBHW8XZ">
    <mxGraphModel dx="2478" dy="1331" grid="0" gridSize="10" guides="1" tooltips="1" connect="1" arrows="1" fold="1" page="0" pageScale="1" pageWidth="850" pageHeight="1100" background="#000000" math="0" shadow="0">
      <root>
        <mxCell id="0" />
        <mxCell id="1" parent="0" />
        <mxCell id="q92YzM6dojiJ9RE8ZQHJ-3" value="&lt;font color=&quot;#ffffff&quot;&gt;User&lt;/font&gt;" style="swimlane;fontStyle=0;childLayout=stackLayout;horizontal=1;startSize=30;horizontalStack=0;resizeParent=1;resizeParentMax=0;resizeLast=0;collapsible=1;marginBottom=0;whiteSpace=wrap;html=1;strokeColor=#FFFFFF;fillColor=#000000;" parent="1" vertex="1">
          <mxGeometry x="263" y="702" width="140" height="229" as="geometry" />
        </mxCell>
        <mxCell id="q92YzM6dojiJ9RE8ZQHJ-4" value="&lt;font color=&quot;#ffffff&quot;&gt;Username&lt;/font&gt;&lt;div&gt;&lt;font color=&quot;#ffffff&quot;&gt;&lt;br&gt;&lt;/font&gt;&lt;div&gt;&lt;font color=&quot;#ffffff&quot;&gt;Password&lt;/font&gt;&lt;/div&gt;&lt;/div&gt;&lt;div&gt;&lt;font color=&quot;#ffffff&quot;&gt;&lt;br&gt;&lt;/font&gt;&lt;/div&gt;&lt;div&gt;&lt;font color=&quot;#ffffff&quot;&gt;Name&lt;/font&gt;&lt;/div&gt;&lt;div&gt;&lt;font color=&quot;#ffffff&quot;&gt;&lt;br&gt;&lt;/font&gt;&lt;/div&gt;&lt;div&gt;&lt;font color=&quot;#ffffff&quot;&gt;Phone_number&lt;/font&gt;&lt;/div&gt;&lt;div&gt;&lt;font color=&quot;#ffffff&quot;&gt;&lt;br&gt;&lt;/font&gt;&lt;/div&gt;&lt;div&gt;&lt;font color=&quot;#ffffff&quot;&gt;Age&lt;/font&gt;&lt;/div&gt;&lt;div&gt;&lt;font color=&quot;#ffffff&quot;&gt;&lt;br&gt;&lt;/font&gt;&lt;/div&gt;&lt;div&gt;&lt;font color=&quot;#ffffff&quot;&gt;UserId&lt;/font&gt;&lt;/div&gt;" style="text;strokeColor=#FFFFFF;fillColor=#000000;align=left;verticalAlign=middle;spacingLeft=4;spacingRight=4;overflow=hidden;points=[[0,0.5],[1,0.5]];portConstraint=eastwest;rotatable=0;whiteSpace=wrap;html=1;" parent="q92YzM6dojiJ9RE8ZQHJ-3" vertex="1">
          <mxGeometry y="30" width="140" height="169" as="geometry" />
        </mxCell>
        <mxCell id="q92YzM6dojiJ9RE8ZQHJ-6" value="" style="text;strokeColor=#FFFFFF;fillColor=#000000;align=left;verticalAlign=middle;spacingLeft=4;spacingRight=4;overflow=hidden;points=[[0,0.5],[1,0.5]];portConstraint=eastwest;rotatable=0;whiteSpace=wrap;html=1;" parent="q92YzM6dojiJ9RE8ZQHJ-3" vertex="1">
          <mxGeometry y="199" width="140" height="30" as="geometry" />
        </mxCell>
        <mxCell id="q92YzM6dojiJ9RE8ZQHJ-8" value="&lt;font color=&quot;#ffffff&quot;&gt;Client&lt;/font&gt;" style="swimlane;fontStyle=0;childLayout=stackLayout;horizontal=1;startSize=30;horizontalStack=0;resizeParent=1;resizeParentMax=0;resizeLast=0;collapsible=1;marginBottom=0;whiteSpace=wrap;html=1;strokeColor=#FFFFFF;fillColor=#000000;" parent="1" vertex="1">
          <mxGeometry x="217" y="516" width="140" height="99" as="geometry" />
        </mxCell>
        <mxCell id="q92YzM6dojiJ9RE8ZQHJ-9" value="&lt;font color=&quot;#ffffff&quot;&gt;Client ID&lt;/font&gt;" style="text;strokeColor=#FFFFFF;fillColor=#000000;align=left;verticalAlign=middle;spacingLeft=4;spacingRight=4;overflow=hidden;points=[[0,0.5],[1,0.5]];portConstraint=eastwest;rotatable=0;whiteSpace=wrap;html=1;" parent="q92YzM6dojiJ9RE8ZQHJ-8" vertex="1">
          <mxGeometry y="30" width="140" height="39" as="geometry" />
        </mxCell>
        <mxCell id="q92YzM6dojiJ9RE8ZQHJ-10" value="&lt;font style=&quot;background-color: rgb(0, 0, 0);&quot; color=&quot;#ffffff&quot;&gt;BookLesson()&lt;/font&gt;" style="text;strokeColor=#FFFFFF;fillColor=#000000;align=left;verticalAlign=middle;spacingLeft=4;spacingRight=4;overflow=hidden;points=[[0,0.5],[1,0.5]];portConstraint=eastwest;rotatable=0;whiteSpace=wrap;html=1;" parent="q92YzM6dojiJ9RE8ZQHJ-8" vertex="1">
          <mxGeometry y="69" width="140" height="30" as="geometry" />
        </mxCell>
        <mxCell id="q92YzM6dojiJ9RE8ZQHJ-11" value="" style="endArrow=block;endSize=16;endFill=0;html=1;rounded=0;entryX=0.5;entryY=0;entryDx=0;entryDy=0;exitX=0.5;exitY=1;exitDx=0;exitDy=0;strokeColor=#FFFFFF;" parent="1" source="q92YzM6dojiJ9RE8ZQHJ-8" edge="1">
          <mxGeometry width="160" relative="1" as="geometry">
            <mxPoint x="334" y="621" as="sourcePoint" />
            <mxPoint x="334" y="699" as="targetPoint" />
          </mxGeometry>
        </mxCell>
        <mxCell id="q92YzM6dojiJ9RE8ZQHJ-12" value="&lt;font color=&quot;#ffffff&quot;&gt;Instructor&lt;/font&gt;" style="swimlane;fontStyle=0;childLayout=stackLayout;horizontal=1;startSize=30;horizontalStack=0;resizeParent=1;resizeParentMax=0;resizeLast=0;collapsible=1;marginBottom=0;whiteSpace=wrap;html=1;strokeColor=#FFFFFF;fillColor=#000000;" parent="1" vertex="1">
          <mxGeometry x="-3" y="513" width="140" height="195" as="geometry" />
        </mxCell>
        <mxCell id="q92YzM6dojiJ9RE8ZQHJ-13" value="&lt;font color=&quot;#ffffff&quot;&gt;Specialization&lt;/font&gt;&lt;div&gt;&lt;font color=&quot;#ffffff&quot;&gt;&lt;br&gt;&lt;/font&gt;&lt;/div&gt;&lt;div&gt;&lt;font color=&quot;#ffffff&quot;&gt;Instructor ID&lt;/font&gt;&lt;/div&gt;&lt;div&gt;&lt;font color=&quot;#ffffff&quot;&gt;&lt;br&gt;&lt;/font&gt;&lt;/div&gt;&lt;div&gt;&lt;font color=&quot;#ffffff&quot;&gt;Availability&lt;/font&gt;&lt;/div&gt;&lt;div&gt;&lt;font color=&quot;#ffffff&quot;&gt;&lt;br&gt;&lt;/font&gt;&lt;/div&gt;&lt;div&gt;&lt;font color=&quot;#ffffff&quot;&gt;OfferingAccepted&lt;/font&gt;&lt;/div&gt;" style="text;strokeColor=#FFFFFF;fillColor=#000000;align=left;verticalAlign=middle;spacingLeft=4;spacingRight=4;overflow=hidden;points=[[0,0.5],[1,0.5]];portConstraint=eastwest;rotatable=0;whiteSpace=wrap;html=1;" parent="q92YzM6dojiJ9RE8ZQHJ-12" vertex="1">
          <mxGeometry y="30" width="140" height="113" as="geometry" />
        </mxCell>
        <mxCell id="q92YzM6dojiJ9RE8ZQHJ-14" value="&lt;font style=&quot;background-color: rgb(0, 0, 0);&quot; color=&quot;#ffffff&quot;&gt;AcceptOffering()&lt;/font&gt;&lt;div&gt;&lt;font style=&quot;background-color: rgb(0, 0, 0);&quot; color=&quot;#ffffff&quot;&gt;&lt;br&gt;&lt;/font&gt;&lt;/div&gt;&lt;div&gt;&lt;font style=&quot;background-color: rgb(0, 0, 0);&quot; color=&quot;#ffffff&quot;&gt;MakeAvailible()&lt;/font&gt;&lt;/div&gt;" style="text;strokeColor=#FFFFFF;fillColor=#000000;align=left;verticalAlign=middle;spacingLeft=4;spacingRight=4;overflow=hidden;points=[[0,0.5],[1,0.5]];portConstraint=eastwest;rotatable=0;whiteSpace=wrap;html=1;" parent="q92YzM6dojiJ9RE8ZQHJ-12" vertex="1">
          <mxGeometry y="143" width="140" height="52" as="geometry" />
        </mxCell>
        <mxCell id="q92YzM6dojiJ9RE8ZQHJ-15" value="" style="endArrow=block;endSize=16;endFill=0;html=1;rounded=0;entryX=0;entryY=0;entryDx=0;entryDy=0;exitX=0.5;exitY=1;exitDx=0;exitDy=0;strokeColor=#FFFFFF;" parent="1" source="q92YzM6dojiJ9RE8ZQHJ-12" target="q92YzM6dojiJ9RE8ZQHJ-3" edge="1">
          <mxGeometry width="160" relative="1" as="geometry">
            <mxPoint x="344" y="631" as="sourcePoint" />
            <mxPoint x="344" y="709" as="targetPoint" />
          </mxGeometry>
        </mxCell>
        <mxCell id="q92YzM6dojiJ9RE8ZQHJ-16" value="&lt;font color=&quot;#ffffff&quot;&gt;Adminstrator&lt;/font&gt;" style="swimlane;fontStyle=0;childLayout=stackLayout;horizontal=1;startSize=30;horizontalStack=0;resizeParent=1;resizeParentMax=0;resizeLast=0;collapsible=1;marginBottom=0;whiteSpace=wrap;html=1;strokeColor=#FFFFFF;fillColor=#000000;" parent="1" vertex="1">
          <mxGeometry x="758" y="520" width="140" height="165" as="geometry" />
        </mxCell>
        <mxCell id="q92YzM6dojiJ9RE8ZQHJ-17" value="&lt;font color=&quot;#ffffff&quot;&gt;Administrator ID&lt;/font&gt;" style="text;strokeColor=#FFFFFF;fillColor=#000000;align=left;verticalAlign=middle;spacingLeft=4;spacingRight=4;overflow=hidden;points=[[0,0.5],[1,0.5]];portConstraint=eastwest;rotatable=0;whiteSpace=wrap;html=1;" parent="q92YzM6dojiJ9RE8ZQHJ-16" vertex="1">
          <mxGeometry y="30" width="140" height="55" as="geometry" />
        </mxCell>
        <mxCell id="q92YzM6dojiJ9RE8ZQHJ-18" value="&lt;font style=&quot;background-color: rgb(0, 0, 0);&quot; color=&quot;#ffffff&quot;&gt;DeleteAccount()&lt;/font&gt;&lt;div&gt;&lt;font style=&quot;background-color: rgb(0, 0, 0);&quot; color=&quot;#ffffff&quot;&gt;&lt;br&gt;&lt;/font&gt;&lt;/div&gt;&lt;div&gt;&lt;font style=&quot;background-color: rgb(0, 0, 0);&quot; color=&quot;#ffffff&quot;&gt;EditOffering()&lt;/font&gt;&lt;/div&gt;&lt;div&gt;&lt;font style=&quot;background-color: rgb(0, 0, 0);&quot; color=&quot;#ffffff&quot;&gt;&lt;br&gt;&lt;/font&gt;&lt;/div&gt;&lt;div&gt;&lt;font style=&quot;background-color: rgb(0, 0, 0);&quot; color=&quot;#ffffff&quot;&gt;CreateOffering()&lt;/font&gt;&lt;/div&gt;" style="text;strokeColor=#FFFFFF;fillColor=#000000;align=left;verticalAlign=middle;spacingLeft=4;spacingRight=4;overflow=hidden;points=[[0,0.5],[1,0.5]];portConstraint=eastwest;rotatable=0;whiteSpace=wrap;html=1;" parent="q92YzM6dojiJ9RE8ZQHJ-16" vertex="1">
          <mxGeometry y="85" width="140" height="80" as="geometry" />
        </mxCell>
        <mxCell id="q92YzM6dojiJ9RE8ZQHJ-19" value="" style="endArrow=block;endSize=16;endFill=0;html=1;rounded=0;entryX=1;entryY=0;entryDx=0;entryDy=0;exitX=0;exitY=1;exitDx=0;exitDy=0;strokeColor=#FFFFFF;" parent="1" source="q92YzM6dojiJ9RE8ZQHJ-16" target="q92YzM6dojiJ9RE8ZQHJ-3" edge="1">
          <mxGeometry width="160" relative="1" as="geometry">
            <mxPoint x="80" y="645" as="sourcePoint" />
            <mxPoint x="273" y="712" as="targetPoint" />
          </mxGeometry>
        </mxCell>
        <mxCell id="q92YzM6dojiJ9RE8ZQHJ-21" value="&lt;font color=&quot;#ffffff&quot;&gt;Guardian&lt;/font&gt;" style="swimlane;fontStyle=0;childLayout=stackLayout;horizontal=1;startSize=30;horizontalStack=0;resizeParent=1;resizeParentMax=0;resizeLast=0;collapsible=1;marginBottom=0;whiteSpace=wrap;html=1;strokeColor=#FFFFFF;fillColor=#000000;" parent="1" vertex="1">
          <mxGeometry x="506" y="512" width="140" height="115" as="geometry" />
        </mxCell>
        <mxCell id="q92YzM6dojiJ9RE8ZQHJ-22" value="&lt;font color=&quot;#ffffff&quot;&gt;Guardian Id&lt;/font&gt;" style="text;strokeColor=#FFFFFF;fillColor=#000000;align=left;verticalAlign=middle;spacingLeft=4;spacingRight=4;overflow=hidden;points=[[0,0.5],[1,0.5]];portConstraint=eastwest;rotatable=0;whiteSpace=wrap;html=1;" parent="q92YzM6dojiJ9RE8ZQHJ-21" vertex="1">
          <mxGeometry y="30" width="140" height="55" as="geometry" />
        </mxCell>
        <mxCell id="q92YzM6dojiJ9RE8ZQHJ-23" value="&lt;span style=&quot;color: rgb(255, 255, 255); background-color: rgb(0, 0, 0);&quot;&gt;BookLesson()&lt;/span&gt;" style="text;strokeColor=#FFFFFF;fillColor=#000000;align=left;verticalAlign=middle;spacingLeft=4;spacingRight=4;overflow=hidden;points=[[0,0.5],[1,0.5]];portConstraint=eastwest;rotatable=0;whiteSpace=wrap;html=1;" parent="q92YzM6dojiJ9RE8ZQHJ-21" vertex="1">
          <mxGeometry y="85" width="140" height="30" as="geometry" />
        </mxCell>
        <mxCell id="q92YzM6dojiJ9RE8ZQHJ-24" value="&lt;font color=&quot;#ffffff&quot;&gt;Location&lt;/font&gt;" style="swimlane;fontStyle=0;childLayout=stackLayout;horizontal=1;startSize=30;horizontalStack=0;resizeParent=1;resizeParentMax=0;resizeLast=0;collapsible=1;marginBottom=0;whiteSpace=wrap;html=1;strokeColor=#FFFFFF;fillColor=#000000;" parent="1" vertex="1">
          <mxGeometry x="63" y="-100" width="140" height="145" as="geometry" />
        </mxCell>
        <mxCell id="q92YzM6dojiJ9RE8ZQHJ-25" value="&lt;font color=&quot;#ffffff&quot;&gt;Address&lt;/font&gt;&lt;div&gt;&lt;font color=&quot;#ffffff&quot;&gt;&lt;br&gt;&lt;/font&gt;&lt;/div&gt;&lt;div&gt;&lt;font color=&quot;#ffffff&quot;&gt;Location Type&lt;/font&gt;&lt;/div&gt;&lt;div&gt;&lt;font color=&quot;#ffffff&quot;&gt;&lt;br&gt;&lt;/font&gt;&lt;/div&gt;&lt;div&gt;&lt;font color=&quot;#ffffff&quot;&gt;Scheduale&lt;/font&gt;&lt;/div&gt;" style="text;strokeColor=#FFFFFF;fillColor=#000000;align=left;verticalAlign=middle;spacingLeft=4;spacingRight=4;overflow=hidden;points=[[0,0.5],[1,0.5]];portConstraint=eastwest;rotatable=0;whiteSpace=wrap;html=1;" parent="q92YzM6dojiJ9RE8ZQHJ-24" vertex="1">
          <mxGeometry y="30" width="140" height="85" as="geometry" />
        </mxCell>
        <mxCell id="q92YzM6dojiJ9RE8ZQHJ-26" value="" style="text;strokeColor=#FFFFFF;fillColor=#000000;align=left;verticalAlign=middle;spacingLeft=4;spacingRight=4;overflow=hidden;points=[[0,0.5],[1,0.5]];portConstraint=eastwest;rotatable=0;whiteSpace=wrap;html=1;" parent="q92YzM6dojiJ9RE8ZQHJ-24" vertex="1">
          <mxGeometry y="115" width="140" height="30" as="geometry" />
        </mxCell>
        <mxCell id="q92YzM6dojiJ9RE8ZQHJ-27" value="&lt;font color=&quot;#ffffff&quot;&gt;Schedule&lt;/font&gt;" style="swimlane;fontStyle=0;childLayout=stackLayout;horizontal=1;startSize=30;horizontalStack=0;resizeParent=1;resizeParentMax=0;resizeLast=0;collapsible=1;marginBottom=0;whiteSpace=wrap;html=1;strokeColor=#FFFFFF;fillColor=#000000;" parent="1" vertex="1">
          <mxGeometry x="418" y="-85" width="140" height="115" as="geometry" />
        </mxCell>
        <mxCell id="q92YzM6dojiJ9RE8ZQHJ-28" value="&lt;font color=&quot;#ffffff&quot;&gt;Time Slots&lt;/font&gt;" style="text;strokeColor=#FFFFFF;fillColor=#000000;align=left;verticalAlign=middle;spacingLeft=4;spacingRight=4;overflow=hidden;points=[[0,0.5],[1,0.5]];portConstraint=eastwest;rotatable=0;whiteSpace=wrap;html=1;" parent="q92YzM6dojiJ9RE8ZQHJ-27" vertex="1">
          <mxGeometry y="30" width="140" height="55" as="geometry" />
        </mxCell>
        <mxCell id="q92YzM6dojiJ9RE8ZQHJ-29" value="" style="text;strokeColor=#FFFFFF;fillColor=#000000;align=left;verticalAlign=middle;spacingLeft=4;spacingRight=4;overflow=hidden;points=[[0,0.5],[1,0.5]];portConstraint=eastwest;rotatable=0;whiteSpace=wrap;html=1;" parent="q92YzM6dojiJ9RE8ZQHJ-27" vertex="1">
          <mxGeometry y="85" width="140" height="30" as="geometry" />
        </mxCell>
        <mxCell id="q92YzM6dojiJ9RE8ZQHJ-30" value="" style="endArrow=diamondThin;endFill=1;endSize=24;html=1;rounded=0;strokeColor=#FFFFFF;entryX=1;entryY=0.5;entryDx=0;entryDy=0;exitX=0;exitY=0.5;exitDx=0;exitDy=0;" parent="1" source="q92YzM6dojiJ9RE8ZQHJ-27" target="q92YzM6dojiJ9RE8ZQHJ-24" edge="1">
          <mxGeometry width="160" relative="1" as="geometry">
            <mxPoint x="-98" y="317" as="sourcePoint" />
            <mxPoint x="56" y="118" as="targetPoint" />
          </mxGeometry>
        </mxCell>
        <mxCell id="q92YzM6dojiJ9RE8ZQHJ-31" value="&lt;font color=&quot;#ffffff&quot;&gt;LocationDB&lt;/font&gt;" style="swimlane;fontStyle=0;childLayout=stackLayout;horizontal=1;startSize=30;horizontalStack=0;resizeParent=1;resizeParentMax=0;resizeLast=0;collapsible=1;marginBottom=0;whiteSpace=wrap;html=1;strokeColor=#FFFFFF;fillColor=#000000;" parent="1" vertex="1">
          <mxGeometry x="63" y="-290" width="140" height="115" as="geometry" />
        </mxCell>
        <mxCell id="q92YzM6dojiJ9RE8ZQHJ-32" value="&lt;font color=&quot;#ffffff&quot;&gt;Location Locations&lt;/font&gt;" style="text;strokeColor=#FFFFFF;fillColor=#000000;align=left;verticalAlign=middle;spacingLeft=4;spacingRight=4;overflow=hidden;points=[[0,0.5],[1,0.5]];portConstraint=eastwest;rotatable=0;whiteSpace=wrap;html=1;" parent="q92YzM6dojiJ9RE8ZQHJ-31" vertex="1">
          <mxGeometry y="30" width="140" height="55" as="geometry" />
        </mxCell>
        <mxCell id="q92YzM6dojiJ9RE8ZQHJ-33" value="&lt;font style=&quot;background-color: rgb(0, 0, 0);&quot; color=&quot;#ffffff&quot;&gt;Item 3&lt;/font&gt;" style="text;strokeColor=#FFFFFF;fillColor=#000000;align=left;verticalAlign=middle;spacingLeft=4;spacingRight=4;overflow=hidden;points=[[0,0.5],[1,0.5]];portConstraint=eastwest;rotatable=0;whiteSpace=wrap;html=1;" parent="q92YzM6dojiJ9RE8ZQHJ-31" vertex="1">
          <mxGeometry y="85" width="140" height="30" as="geometry" />
        </mxCell>
        <mxCell id="q92YzM6dojiJ9RE8ZQHJ-34" value="" style="endArrow=diamondThin;endFill=1;endSize=24;html=1;rounded=0;strokeColor=#FFFFFF;exitX=0.5;exitY=1;exitDx=0;exitDy=0;" parent="1" source="q92YzM6dojiJ9RE8ZQHJ-31" edge="1">
          <mxGeometry width="160" relative="1" as="geometry">
            <mxPoint x="281" y="-32" as="sourcePoint" />
            <mxPoint x="-17" y="-165" as="targetPoint" />
          </mxGeometry>
        </mxCell>
        <mxCell id="q92YzM6dojiJ9RE8ZQHJ-38" value="&lt;font color=&quot;#ffffff&quot;&gt;Organization/App&lt;/font&gt;" style="swimlane;fontStyle=0;childLayout=stackLayout;horizontal=1;startSize=30;horizontalStack=0;resizeParent=1;resizeParentMax=0;resizeLast=0;collapsible=1;marginBottom=0;whiteSpace=wrap;html=1;strokeColor=#FFFFFF;fillColor=#000000;" parent="1" vertex="1">
          <mxGeometry x="63" y="113" width="140" height="196" as="geometry" />
        </mxCell>
        <mxCell id="q92YzM6dojiJ9RE8ZQHJ-39" value="&lt;font color=&quot;#ffffff&quot;&gt;Time Slots&lt;/font&gt;" style="text;strokeColor=#FFFFFF;fillColor=#000000;align=left;verticalAlign=middle;spacingLeft=4;spacingRight=4;overflow=hidden;points=[[0,0.5],[1,0.5]];portConstraint=eastwest;rotatable=0;whiteSpace=wrap;html=1;" parent="q92YzM6dojiJ9RE8ZQHJ-38" vertex="1">
          <mxGeometry y="30" width="140" height="55" as="geometry" />
        </mxCell>
        <mxCell id="q92YzM6dojiJ9RE8ZQHJ-40" value="&lt;font style=&quot;background-color: rgb(0, 0, 0);&quot; color=&quot;#ffffff&quot;&gt;MakeAvailable()&lt;/font&gt;&lt;div&gt;&lt;font style=&quot;background-color: rgb(0, 0, 0);&quot; color=&quot;#ffffff&quot;&gt;&lt;br&gt;&lt;/font&gt;&lt;/div&gt;&lt;div&gt;&lt;font style=&quot;background-color: rgb(0, 0, 0);&quot; color=&quot;#ffffff&quot;&gt;RegisterUser()&lt;/font&gt;&lt;/div&gt;&lt;div&gt;&lt;font style=&quot;background-color: rgb(0, 0, 0);&quot; color=&quot;#ffffff&quot;&gt;&lt;br&gt;&lt;/font&gt;&lt;/div&gt;&lt;div&gt;&lt;font style=&quot;background-color: rgb(0, 0, 0);&quot; color=&quot;#ffffff&quot;&gt;RegisterInstructor()&lt;/font&gt;&lt;/div&gt;&lt;div&gt;&lt;font style=&quot;background-color: rgb(0, 0, 0);&quot; color=&quot;#ffffff&quot;&gt;&lt;br&gt;&lt;/font&gt;&lt;/div&gt;&lt;div&gt;&lt;font style=&quot;background-color: rgb(0, 0, 0);&quot; color=&quot;#ffffff&quot;&gt;DisplayOffering&lt;/font&gt;&lt;/div&gt;" style="text;strokeColor=#FFFFFF;fillColor=#000000;align=left;verticalAlign=middle;spacingLeft=4;spacingRight=4;overflow=hidden;points=[[0,0.5],[1,0.5]];portConstraint=eastwest;rotatable=0;whiteSpace=wrap;html=1;" parent="q92YzM6dojiJ9RE8ZQHJ-38" vertex="1">
          <mxGeometry y="85" width="140" height="111" as="geometry" />
        </mxCell>
        <mxCell id="q92YzM6dojiJ9RE8ZQHJ-41" value="" style="edgeStyle=segmentEdgeStyle;endArrow=classic;html=1;curved=0;rounded=0;endSize=8;startSize=8;strokeColor=#FFFFFF;entryX=0.5;entryY=1;entryDx=0;entryDy=0;exitX=0.5;exitY=0;exitDx=0;exitDy=0;" parent="1" source="q92YzM6dojiJ9RE8ZQHJ-38" target="q92YzM6dojiJ9RE8ZQHJ-24" edge="1">
          <mxGeometry width="50" height="50" relative="1" as="geometry">
            <mxPoint x="-269" y="80" as="sourcePoint" />
            <mxPoint x="-219" y="30" as="targetPoint" />
          </mxGeometry>
        </mxCell>
        <mxCell id="q92YzM6dojiJ9RE8ZQHJ-42" value="&lt;font color=&quot;#ffffff&quot;&gt;Owns&lt;/font&gt;" style="text;html=1;align=center;verticalAlign=middle;whiteSpace=wrap;rounded=0;" parent="1" vertex="1">
          <mxGeometry x="125" y="64" width="60" height="30" as="geometry" />
        </mxCell>
        <mxCell id="q92YzM6dojiJ9RE8ZQHJ-46" value="&lt;font color=&quot;#ffffff&quot;&gt;TimeSlot&lt;/font&gt;" style="swimlane;fontStyle=0;childLayout=stackLayout;horizontal=1;startSize=30;horizontalStack=0;resizeParent=1;resizeParentMax=0;resizeLast=0;collapsible=1;marginBottom=0;whiteSpace=wrap;html=1;strokeColor=#FFFFFF;fillColor=#000000;" parent="1" vertex="1">
          <mxGeometry x="512" y="111.5" width="140" height="145" as="geometry" />
        </mxCell>
        <mxCell id="SPLY-4hhll68yxZ88iQ7-50" value="&lt;font style=&quot;background-color: rgb(0, 0, 0);&quot; color=&quot;#ffffff&quot;&gt;1&lt;/font&gt;" style="text;whiteSpace=wrap;html=1;" vertex="1" parent="q92YzM6dojiJ9RE8ZQHJ-46">
          <mxGeometry y="30" width="140" height="30" as="geometry" />
        </mxCell>
        <mxCell id="q92YzM6dojiJ9RE8ZQHJ-47" value="&lt;font color=&quot;#ffffff&quot;&gt;Start Time&lt;/font&gt;&lt;div&gt;&lt;font color=&quot;#ffffff&quot;&gt;&lt;br&gt;&lt;/font&gt;&lt;/div&gt;&lt;div&gt;&lt;font color=&quot;#ffffff&quot;&gt;EndTime&lt;/font&gt;&lt;/div&gt;" style="text;strokeColor=#FFFFFF;fillColor=#000000;align=left;verticalAlign=middle;spacingLeft=4;spacingRight=4;overflow=hidden;points=[[0,0.5],[1,0.5]];portConstraint=eastwest;rotatable=0;whiteSpace=wrap;html=1;" parent="q92YzM6dojiJ9RE8ZQHJ-46" vertex="1">
          <mxGeometry y="60" width="140" height="55" as="geometry" />
        </mxCell>
        <mxCell id="q92YzM6dojiJ9RE8ZQHJ-48" value="" style="text;strokeColor=#FFFFFF;fillColor=#000000;align=left;verticalAlign=middle;spacingLeft=4;spacingRight=4;overflow=hidden;points=[[0,0.5],[1,0.5]];portConstraint=eastwest;rotatable=0;whiteSpace=wrap;html=1;" parent="q92YzM6dojiJ9RE8ZQHJ-46" vertex="1">
          <mxGeometry y="115" width="140" height="30" as="geometry" />
        </mxCell>
        <mxCell id="q92YzM6dojiJ9RE8ZQHJ-50" value="" style="endArrow=none;html=1;rounded=0;strokeColor=#FFFFFF;exitX=0;exitY=0.5;exitDx=0;exitDy=0;entryX=1;entryY=0.5;entryDx=0;entryDy=0;" parent="1" source="q92YzM6dojiJ9RE8ZQHJ-47" target="q92YzM6dojiJ9RE8ZQHJ-52" edge="1">
          <mxGeometry width="50" height="50" relative="1" as="geometry">
            <mxPoint x="675.5" y="149" as="sourcePoint" />
            <mxPoint x="675.5" y="162" as="targetPoint" />
          </mxGeometry>
        </mxCell>
        <mxCell id="q92YzM6dojiJ9RE8ZQHJ-51" value="&lt;font color=&quot;#ffffff&quot;&gt;Offering&lt;/font&gt;" style="swimlane;fontStyle=0;childLayout=stackLayout;horizontal=1;startSize=30;horizontalStack=0;resizeParent=1;resizeParentMax=0;resizeLast=0;collapsible=1;marginBottom=0;whiteSpace=wrap;html=1;strokeColor=#FFFFFF;fillColor=#000000;" parent="1" vertex="1">
          <mxGeometry x="320" y="71" width="140" height="196" as="geometry" />
        </mxCell>
        <mxCell id="q92YzM6dojiJ9RE8ZQHJ-52" value="&lt;font color=&quot;#ffffff&quot;&gt;Lesson&lt;/font&gt;&lt;div&gt;&lt;font color=&quot;#ffffff&quot;&gt;&lt;br&gt;&lt;/font&gt;&lt;/div&gt;&lt;div&gt;&lt;font color=&quot;#ffffff&quot;&gt;Instructor&lt;/font&gt;&lt;/div&gt;&lt;div&gt;&lt;font color=&quot;#ffffff&quot;&gt;&lt;br&gt;&lt;/font&gt;&lt;/div&gt;&lt;div&gt;&lt;font color=&quot;#ffffff&quot;&gt;Timeslot&lt;/font&gt;&lt;/div&gt;&lt;div&gt;&lt;font color=&quot;#ffffff&quot;&gt;&lt;br&gt;&lt;/font&gt;&lt;/div&gt;&lt;div&gt;&lt;font color=&quot;#ffffff&quot;&gt;IsAvailable&lt;/font&gt;&lt;/div&gt;" style="text;strokeColor=#FFFFFF;fillColor=#000000;align=left;verticalAlign=middle;spacingLeft=4;spacingRight=4;overflow=hidden;points=[[0,0.5],[1,0.5]];portConstraint=eastwest;rotatable=0;whiteSpace=wrap;html=1;" parent="q92YzM6dojiJ9RE8ZQHJ-51" vertex="1">
          <mxGeometry y="30" width="140" height="136" as="geometry" />
        </mxCell>
        <mxCell id="q92YzM6dojiJ9RE8ZQHJ-53" value="" style="text;strokeColor=#FFFFFF;fillColor=#000000;align=left;verticalAlign=middle;spacingLeft=4;spacingRight=4;overflow=hidden;points=[[0,0.5],[1,0.5]];portConstraint=eastwest;rotatable=0;whiteSpace=wrap;html=1;" parent="q92YzM6dojiJ9RE8ZQHJ-51" vertex="1">
          <mxGeometry y="166" width="140" height="30" as="geometry" />
        </mxCell>
        <mxCell id="q92YzM6dojiJ9RE8ZQHJ-62" value="" style="endArrow=classic;html=1;rounded=0;strokeColor=#FFFFFF;entryX=0;entryY=1;entryDx=0;entryDy=0;exitX=1;exitY=0;exitDx=0;exitDy=0;" parent="1" source="q92YzM6dojiJ9RE8ZQHJ-12" target="q92YzM6dojiJ9RE8ZQHJ-51" edge="1">
          <mxGeometry width="50" height="50" relative="1" as="geometry">
            <mxPoint x="305" y="486" as="sourcePoint" />
            <mxPoint x="355" y="436" as="targetPoint" />
          </mxGeometry>
        </mxCell>
        <mxCell id="q92YzM6dojiJ9RE8ZQHJ-63" value="&lt;font style=&quot;background-color: rgb(0, 0, 0);&quot; color=&quot;#ffffff&quot;&gt;0..*&lt;/font&gt;" style="text;whiteSpace=wrap;html=1;" parent="1" vertex="1">
          <mxGeometry x="289.0014285714289" y="251.00285714285735" width="59" height="36" as="geometry" />
        </mxCell>
        <mxCell id="q92YzM6dojiJ9RE8ZQHJ-64" value="&lt;font color=&quot;#ffffff&quot;&gt;Lesson&lt;/font&gt;" style="swimlane;fontStyle=0;childLayout=stackLayout;horizontal=1;startSize=30;horizontalStack=0;resizeParent=1;resizeParentMax=0;resizeLast=0;collapsible=1;marginBottom=0;whiteSpace=wrap;html=1;strokeColor=#FFFFFF;fillColor=#000000;" parent="1" vertex="1">
          <mxGeometry x="320" y="310" width="140" height="155" as="geometry" />
        </mxCell>
        <mxCell id="q92YzM6dojiJ9RE8ZQHJ-65" value="&lt;font color=&quot;#ffffff&quot;&gt;Lesson Name&lt;/font&gt;&lt;br&gt;&lt;div&gt;&lt;font color=&quot;#ffffff&quot;&gt;&lt;br&gt;&lt;/font&gt;&lt;/div&gt;&lt;div&gt;&lt;font color=&quot;#ffffff&quot;&gt;Duration&lt;/font&gt;&lt;/div&gt;&lt;div&gt;&lt;font color=&quot;#ffffff&quot;&gt;&lt;br&gt;&lt;/font&gt;&lt;/div&gt;&lt;div&gt;&lt;font color=&quot;#ffffff&quot;&gt;GroupLesson&lt;/font&gt;&lt;/div&gt;" style="text;strokeColor=#FFFFFF;fillColor=#000000;align=left;verticalAlign=middle;spacingLeft=4;spacingRight=4;overflow=hidden;points=[[0,0.5],[1,0.5]];portConstraint=eastwest;rotatable=0;whiteSpace=wrap;html=1;" parent="q92YzM6dojiJ9RE8ZQHJ-64" vertex="1">
          <mxGeometry y="30" width="140" height="95" as="geometry" />
        </mxCell>
        <mxCell id="q92YzM6dojiJ9RE8ZQHJ-66" value="&lt;font style=&quot;background-color: rgb(0, 0, 0);&quot; color=&quot;#ffffff&quot;&gt;Item 3&lt;/font&gt;" style="text;strokeColor=#FFFFFF;fillColor=#000000;align=left;verticalAlign=middle;spacingLeft=4;spacingRight=4;overflow=hidden;points=[[0,0.5],[1,0.5]];portConstraint=eastwest;rotatable=0;whiteSpace=wrap;html=1;" parent="q92YzM6dojiJ9RE8ZQHJ-64" vertex="1">
          <mxGeometry y="125" width="140" height="30" as="geometry" />
        </mxCell>
        <mxCell id="q92YzM6dojiJ9RE8ZQHJ-70" value="" style="endArrow=diamondThin;endFill=1;endSize=24;html=1;rounded=0;strokeColor=#FFFFFF;exitX=0.5;exitY=1;exitDx=0;exitDy=0;" parent="1" source="q92YzM6dojiJ9RE8ZQHJ-51" edge="1">
          <mxGeometry width="160" relative="1" as="geometry">
            <mxPoint x="428" y="-17" as="sourcePoint" />
            <mxPoint x="390" y="310" as="targetPoint" />
          </mxGeometry>
        </mxCell>
        <mxCell id="q92YzM6dojiJ9RE8ZQHJ-71" value="" style="endArrow=block;endSize=16;endFill=0;html=1;rounded=0;strokeColor=#FFFFFF;entryX=1;entryY=0.5;entryDx=0;entryDy=0;" parent="1" target="q92YzM6dojiJ9RE8ZQHJ-8" edge="1">
          <mxGeometry width="160" relative="1" as="geometry">
            <mxPoint x="503" y="567" as="sourcePoint" />
            <mxPoint x="360" y="584" as="targetPoint" />
          </mxGeometry>
        </mxCell>
        <mxCell id="q92YzM6dojiJ9RE8ZQHJ-72" value="" style="endArrow=classic;html=1;rounded=0;strokeColor=#FFFFFF;entryX=-0.014;entryY=0.968;entryDx=0;entryDy=0;exitX=0.163;exitY=0;exitDx=0;exitDy=0;exitPerimeter=0;entryPerimeter=0;" parent="1" source="q92YzM6dojiJ9RE8ZQHJ-8" target="q92YzM6dojiJ9RE8ZQHJ-65" edge="1">
          <mxGeometry width="50" height="50" relative="1" as="geometry">
            <mxPoint x="147" y="523" as="sourcePoint" />
            <mxPoint x="330" y="279" as="targetPoint" />
          </mxGeometry>
        </mxCell>
        <mxCell id="q92YzM6dojiJ9RE8ZQHJ-73" value="" style="endArrow=classic;html=1;rounded=0;strokeColor=#FFFFFF;entryX=1;entryY=0.2;entryDx=0;entryDy=0;exitX=0.5;exitY=0;exitDx=0;exitDy=0;entryPerimeter=0;" parent="1" source="q92YzM6dojiJ9RE8ZQHJ-21" target="q92YzM6dojiJ9RE8ZQHJ-66" edge="1">
          <mxGeometry width="50" height="50" relative="1" as="geometry">
            <mxPoint x="157" y="533" as="sourcePoint" />
            <mxPoint x="340" y="289" as="targetPoint" />
          </mxGeometry>
        </mxCell>
        <mxCell id="q92YzM6dojiJ9RE8ZQHJ-76" value="" style="endArrow=none;dashed=1;html=1;dashPattern=1 3;strokeWidth=2;rounded=0;strokeColor=#FFFFFF;entryX=1;entryY=0.5;entryDx=0;entryDy=0;" parent="1" target="q92YzM6dojiJ9RE8ZQHJ-78" edge="1">
          <mxGeometry width="50" height="50" relative="1" as="geometry">
            <mxPoint x="274" y="474" as="sourcePoint" />
            <mxPoint x="-96" y="393" as="targetPoint" />
          </mxGeometry>
        </mxCell>
        <mxCell id="q92YzM6dojiJ9RE8ZQHJ-77" value="&lt;font color=&quot;#ffffff&quot;&gt;Booking details&lt;/font&gt;" style="swimlane;fontStyle=0;childLayout=stackLayout;horizontal=1;startSize=30;horizontalStack=0;resizeParent=1;resizeParentMax=0;resizeLast=0;collapsible=1;marginBottom=0;whiteSpace=wrap;html=1;strokeColor=#FFFFFF;fillColor=#000000;" parent="1" vertex="1">
          <mxGeometry x="-243" y="335" width="140" height="115" as="geometry" />
        </mxCell>
        <mxCell id="q92YzM6dojiJ9RE8ZQHJ-78" value="&lt;font color=&quot;#ffffff&quot;&gt;Information&lt;/font&gt;" style="text;strokeColor=#FFFFFF;fillColor=#000000;align=left;verticalAlign=middle;spacingLeft=4;spacingRight=4;overflow=hidden;points=[[0,0.5],[1,0.5]];portConstraint=eastwest;rotatable=0;whiteSpace=wrap;html=1;" parent="q92YzM6dojiJ9RE8ZQHJ-77" vertex="1">
          <mxGeometry y="30" width="140" height="55" as="geometry" />
        </mxCell>
        <mxCell id="q92YzM6dojiJ9RE8ZQHJ-79" value="" style="text;strokeColor=#FFFFFF;fillColor=#000000;align=left;verticalAlign=middle;spacingLeft=4;spacingRight=4;overflow=hidden;points=[[0,0.5],[1,0.5]];portConstraint=eastwest;rotatable=0;whiteSpace=wrap;html=1;" parent="q92YzM6dojiJ9RE8ZQHJ-77" vertex="1">
          <mxGeometry y="85" width="140" height="30" as="geometry" />
        </mxCell>
        <mxCell id="q92YzM6dojiJ9RE8ZQHJ-80" value="" style="endArrow=classic;html=1;rounded=0;strokeColor=#FFFFFF;exitX=0.5;exitY=1;exitDx=0;exitDy=0;entryX=0.5;entryY=1;entryDx=0;entryDy=0;" parent="1" source="q92YzM6dojiJ9RE8ZQHJ-16" edge="1" target="q92YzM6dojiJ9RE8ZQHJ-77">
          <mxGeometry width="50" height="50" relative="1" as="geometry">
            <mxPoint x="147" y="523" as="sourcePoint" />
            <mxPoint x="-173" y="649" as="targetPoint" />
            <Array as="points">
              <mxPoint x="836" y="951" />
              <mxPoint x="-168" y="954" />
            </Array>
          </mxGeometry>
        </mxCell>
        <mxCell id="q92YzM6dojiJ9RE8ZQHJ-81" value="" style="endArrow=classic;html=1;rounded=0;strokeColor=#FFFFFF;entryX=1;entryY=1;entryDx=0;entryDy=0;" parent="1" target="q92YzM6dojiJ9RE8ZQHJ-77" edge="1">
          <mxGeometry width="50" height="50" relative="1" as="geometry">
            <mxPoint x="216" y="516" as="sourcePoint" />
            <mxPoint x="340" y="287" as="targetPoint" />
          </mxGeometry>
        </mxCell>
        <mxCell id="q92YzM6dojiJ9RE8ZQHJ-82" value="" style="endArrow=classic;html=1;rounded=0;exitX=0;exitY=1;exitDx=0;exitDy=0;strokeColor=#FFFFFF;entryX=0.993;entryY=0.373;entryDx=0;entryDy=0;entryPerimeter=0;" parent="1" source="q92YzM6dojiJ9RE8ZQHJ-16" target="q92YzM6dojiJ9RE8ZQHJ-4" edge="1">
          <mxGeometry width="50" height="50" relative="1" as="geometry">
            <mxPoint x="305" y="486" as="sourcePoint" />
            <mxPoint x="434" y="798" as="targetPoint" />
          </mxGeometry>
        </mxCell>
        <mxCell id="q92YzM6dojiJ9RE8ZQHJ-84" value="&lt;font color=&quot;#ffffff&quot;&gt;Access Account / Delete / Modify&lt;/font&gt;" style="text;html=1;align=center;verticalAlign=middle;whiteSpace=wrap;rounded=0;" parent="1" vertex="1">
          <mxGeometry x="472" y="724" width="192" height="30" as="geometry" />
        </mxCell>
        <mxCell id="q92YzM6dojiJ9RE8ZQHJ-86" value="" style="endArrow=classic;html=1;rounded=0;strokeColor=#FFFFFF;entryX=1;entryY=1;entryDx=0;entryDy=0;exitX=0.25;exitY=0;exitDx=0;exitDy=0;" parent="1" source="q92YzM6dojiJ9RE8ZQHJ-16" target="q92YzM6dojiJ9RE8ZQHJ-51" edge="1">
          <mxGeometry width="50" height="50" relative="1" as="geometry">
            <mxPoint x="147" y="523" as="sourcePoint" />
            <mxPoint x="330" y="277" as="targetPoint" />
          </mxGeometry>
        </mxCell>
        <mxCell id="q92YzM6dojiJ9RE8ZQHJ-87" value="&lt;font color=&quot;#ffffff&quot;&gt;Create Offering&lt;/font&gt;" style="text;html=1;align=center;verticalAlign=middle;whiteSpace=wrap;rounded=0;" parent="1" vertex="1">
          <mxGeometry x="622" y="362" width="60" height="30" as="geometry" />
        </mxCell>
        <mxCell id="q92YzM6dojiJ9RE8ZQHJ-89" value="" style="endArrow=classic;html=1;rounded=0;strokeColor=#FFFFFF;entryX=1;entryY=0;entryDx=0;entryDy=0;exitX=0.5;exitY=0;exitDx=0;exitDy=0;" parent="1" source="q92YzM6dojiJ9RE8ZQHJ-16" target="q92YzM6dojiJ9RE8ZQHJ-24" edge="1">
          <mxGeometry width="50" height="50" relative="1" as="geometry">
            <mxPoint x="803" y="530" as="sourcePoint" />
            <mxPoint x="470" y="277" as="targetPoint" />
            <Array as="points">
              <mxPoint x="823" y="-232" />
            </Array>
          </mxGeometry>
        </mxCell>
        <mxCell id="q92YzM6dojiJ9RE8ZQHJ-90" value="&lt;font color=&quot;#ffffff&quot;&gt;Booking details DB&lt;/font&gt;" style="swimlane;fontStyle=0;childLayout=stackLayout;horizontal=1;startSize=30;horizontalStack=0;resizeParent=1;resizeParentMax=0;resizeLast=0;collapsible=1;marginBottom=0;whiteSpace=wrap;html=1;strokeColor=#FFFFFF;fillColor=#000000;" parent="1" vertex="1">
          <mxGeometry x="-539" y="492.5" width="140" height="115" as="geometry" />
        </mxCell>
        <mxCell id="q92YzM6dojiJ9RE8ZQHJ-91" value="&lt;font color=&quot;#ffffff&quot;&gt;Bookings&lt;/font&gt;" style="text;strokeColor=#FFFFFF;fillColor=#000000;align=left;verticalAlign=middle;spacingLeft=4;spacingRight=4;overflow=hidden;points=[[0,0.5],[1,0.5]];portConstraint=eastwest;rotatable=0;whiteSpace=wrap;html=1;" parent="q92YzM6dojiJ9RE8ZQHJ-90" vertex="1">
          <mxGeometry y="30" width="140" height="55" as="geometry" />
        </mxCell>
        <mxCell id="q92YzM6dojiJ9RE8ZQHJ-92" value="" style="text;strokeColor=#FFFFFF;fillColor=#000000;align=left;verticalAlign=middle;spacingLeft=4;spacingRight=4;overflow=hidden;points=[[0,0.5],[1,0.5]];portConstraint=eastwest;rotatable=0;whiteSpace=wrap;html=1;" parent="q92YzM6dojiJ9RE8ZQHJ-90" vertex="1">
          <mxGeometry y="85" width="140" height="30" as="geometry" />
        </mxCell>
        <mxCell id="q92YzM6dojiJ9RE8ZQHJ-94" value="" style="endArrow=diamondThin;endFill=1;endSize=24;html=1;rounded=0;entryX=0.5;entryY=0;entryDx=0;entryDy=0;strokeColor=#FFFFFF;" parent="1" target="q92YzM6dojiJ9RE8ZQHJ-90" edge="1">
          <mxGeometry width="160" relative="1" as="geometry">
            <mxPoint x="-459" y="384" as="sourcePoint" />
            <mxPoint x="367" y="576" as="targetPoint" />
          </mxGeometry>
        </mxCell>
        <mxCell id="SPLY-4hhll68yxZ88iQ7-1" value="" style="endArrow=none;html=1;rounded=0;strokeColor=#FFFFFF;exitX=0.5;exitY=0;exitDx=0;exitDy=0;entryX=0.564;entryY=1;entryDx=0;entryDy=0;entryPerimeter=0;" edge="1" parent="1" source="q92YzM6dojiJ9RE8ZQHJ-46" target="q92YzM6dojiJ9RE8ZQHJ-29">
          <mxGeometry width="50" height="50" relative="1" as="geometry">
            <mxPoint x="522" y="179" as="sourcePoint" />
            <mxPoint x="470" y="179" as="targetPoint" />
          </mxGeometry>
        </mxCell>
        <mxCell id="SPLY-4hhll68yxZ88iQ7-3" value="&lt;font style=&quot;background-color: rgb(0, 0, 0);&quot; color=&quot;#ffffff&quot;&gt;0..*&lt;/font&gt;" style="text;whiteSpace=wrap;html=1;" vertex="1" parent="1">
          <mxGeometry x="472.0014285714289" y="251.00285714285735" width="59" height="36" as="geometry" />
        </mxCell>
        <mxCell id="SPLY-4hhll68yxZ88iQ7-4" value="&lt;font style=&quot;background-color: rgb(0, 0, 0);&quot; color=&quot;#ffffff&quot;&gt;1&lt;/font&gt;" style="text;whiteSpace=wrap;html=1;" vertex="1" parent="1">
          <mxGeometry x="744.001428571429" y="495.00285714285735" width="59" height="36" as="geometry" />
        </mxCell>
        <mxCell id="SPLY-4hhll68yxZ88iQ7-5" value="&lt;font style=&quot;background-color: rgb(0, 0, 0);&quot; color=&quot;#ffffff&quot;&gt;1&lt;/font&gt;" style="text;whiteSpace=wrap;html=1;" vertex="1" parent="1">
          <mxGeometry x="579.001428571429" y="490.00285714285735" width="59" height="36" as="geometry" />
        </mxCell>
        <mxCell id="SPLY-4hhll68yxZ88iQ7-6" value="&lt;font style=&quot;background-color: rgb(0, 0, 0);&quot; color=&quot;#ffffff&quot;&gt;1&lt;/font&gt;" style="text;whiteSpace=wrap;html=1;" vertex="1" parent="1">
          <mxGeometry x="261.00142857142896" y="490.00285714285735" width="59" height="36" as="geometry" />
        </mxCell>
        <mxCell id="SPLY-4hhll68yxZ88iQ7-8" value="&lt;font style=&quot;background-color: rgb(0, 0, 0);&quot; color=&quot;#ffffff&quot;&gt;0..*&lt;/font&gt;" style="text;whiteSpace=wrap;html=1;" vertex="1" parent="1">
          <mxGeometry x="468.0014285714289" y="421.00285714285735" width="59" height="36" as="geometry" />
        </mxCell>
        <mxCell id="SPLY-4hhll68yxZ88iQ7-9" value="&lt;font style=&quot;background-color: rgb(0, 0, 0);&quot; color=&quot;#ffffff&quot;&gt;0..*&lt;/font&gt;" style="text;whiteSpace=wrap;html=1;" vertex="1" parent="1">
          <mxGeometry x="280.0014285714289" y="416.00285714285735" width="59" height="36" as="geometry" />
        </mxCell>
        <mxCell id="SPLY-4hhll68yxZ88iQ7-11" value="&lt;font style=&quot;background-color: rgb(0, 0, 0);&quot; color=&quot;#ffffff&quot;&gt;1&lt;/font&gt;" style="text;whiteSpace=wrap;html=1;" vertex="1" parent="1">
          <mxGeometry x="754.001428571429" y="688.0028571428574" width="59" height="36" as="geometry" />
        </mxCell>
        <mxCell id="SPLY-4hhll68yxZ88iQ7-12" value="&lt;font style=&quot;background-color: rgb(0, 0, 0);&quot; color=&quot;#ffffff&quot;&gt;0..*&lt;/font&gt;" style="text;whiteSpace=wrap;html=1;" vertex="1" parent="1">
          <mxGeometry x="409.0014285714289" y="798.5028571428574" width="59" height="36" as="geometry" />
        </mxCell>
        <mxCell id="SPLY-4hhll68yxZ88iQ7-14" value="&lt;font color=&quot;#ffffff&quot;&gt;Access Bookings / Delete / Modify&lt;/font&gt;" style="text;html=1;align=center;verticalAlign=middle;whiteSpace=wrap;rounded=0;" vertex="1" parent="1">
          <mxGeometry x="234" y="952" width="192" height="30" as="geometry" />
        </mxCell>
        <mxCell id="SPLY-4hhll68yxZ88iQ7-15" value="&lt;font color=&quot;#ffffff&quot;&gt;Accepts Lesson&lt;/font&gt;" style="text;html=1;align=center;verticalAlign=middle;whiteSpace=wrap;rounded=0;" vertex="1" parent="1">
          <mxGeometry x="472" y="460" width="102" height="30" as="geometry" />
        </mxCell>
        <mxCell id="SPLY-4hhll68yxZ88iQ7-16" value="&lt;font color=&quot;#ffffff&quot;&gt;Accepts Lesson&lt;/font&gt;" style="text;html=1;align=center;verticalAlign=middle;whiteSpace=wrap;rounded=0;" vertex="1" parent="1">
          <mxGeometry x="267" y="465" width="60" height="30" as="geometry" />
        </mxCell>
        <mxCell id="SPLY-4hhll68yxZ88iQ7-17" value="" style="endArrow=classic;html=1;rounded=0;strokeColor=#FFFFFF;" edge="1" parent="1">
          <mxGeometry width="50" height="50" relative="1" as="geometry">
            <mxPoint x="204" y="182" as="sourcePoint" />
            <mxPoint x="321" y="182" as="targetPoint" />
          </mxGeometry>
        </mxCell>
        <mxCell id="SPLY-4hhll68yxZ88iQ7-18" value="&lt;font color=&quot;#ffffff&quot;&gt;Displays Offering&lt;/font&gt;" style="text;html=1;align=center;verticalAlign=middle;whiteSpace=wrap;rounded=0;" vertex="1" parent="1">
          <mxGeometry x="209" y="141" width="99" height="30" as="geometry" />
        </mxCell>
        <mxCell id="SPLY-4hhll68yxZ88iQ7-19" value="&lt;font style=&quot;background-color: rgb(0, 0, 0);&quot; color=&quot;#ffffff&quot;&gt;0..*&lt;/font&gt;" style="text;whiteSpace=wrap;html=1;" vertex="1" parent="1">
          <mxGeometry x="-95.9985714285711" y="426.00285714285735" width="59" height="36" as="geometry" />
        </mxCell>
        <mxCell id="SPLY-4hhll68yxZ88iQ7-20" value="&lt;font style=&quot;background-color: rgb(0, 0, 0);&quot; color=&quot;#ffffff&quot;&gt;1&lt;/font&gt;" style="text;whiteSpace=wrap;html=1;" vertex="1" parent="1">
          <mxGeometry x="464" y="175" width="21" height="30" as="geometry" />
        </mxCell>
        <mxCell id="SPLY-4hhll68yxZ88iQ7-21" value="&lt;font color=&quot;#ffffff&quot;&gt;Views&lt;/font&gt;" style="text;html=1;align=center;verticalAlign=middle;whiteSpace=wrap;rounded=0;" vertex="1" parent="1">
          <mxGeometry x="-37" y="443" width="102" height="30" as="geometry" />
        </mxCell>
        <mxCell id="SPLY-4hhll68yxZ88iQ7-24" value="&lt;font style=&quot;background-color: rgb(0, 0, 0);&quot; color=&quot;#ffffff&quot;&gt;1&lt;/font&gt;" style="text;whiteSpace=wrap;html=1;" vertex="1" parent="1">
          <mxGeometry x="141" y="516" width="21" height="30" as="geometry" />
        </mxCell>
        <mxCell id="SPLY-4hhll68yxZ88iQ7-25" value="&lt;font color=&quot;#ffffff&quot;&gt;Accepts Offering&lt;/font&gt;" style="text;html=1;align=center;verticalAlign=middle;whiteSpace=wrap;rounded=0;" vertex="1" parent="1">
          <mxGeometry x="203" y="323" width="102" height="30" as="geometry" />
        </mxCell>
        <mxCell id="SPLY-4hhll68yxZ88iQ7-28" value="" style="endArrow=classic;html=1;rounded=0;strokeColor=#FFFFFF;entryX=0.5;entryY=0;entryDx=0;entryDy=0;exitX=0.127;exitY=1.011;exitDx=0;exitDy=0;exitPerimeter=0;" edge="1" parent="1" source="q92YzM6dojiJ9RE8ZQHJ-40" target="q92YzM6dojiJ9RE8ZQHJ-12">
          <mxGeometry width="50" height="50" relative="1" as="geometry">
            <mxPoint x="217" y="213" as="sourcePoint" />
            <mxPoint x="331" y="215" as="targetPoint" />
          </mxGeometry>
        </mxCell>
        <mxCell id="SPLY-4hhll68yxZ88iQ7-29" value="" style="endArrow=classic;html=1;rounded=0;strokeColor=#FFFFFF;entryX=0;entryY=0;entryDx=0;entryDy=0;exitX=0.75;exitY=1;exitDx=0;exitDy=0;" edge="1" parent="1" source="q92YzM6dojiJ9RE8ZQHJ-38" target="q92YzM6dojiJ9RE8ZQHJ-8">
          <mxGeometry width="50" height="50" relative="1" as="geometry">
            <mxPoint x="227" y="223" as="sourcePoint" />
            <mxPoint x="341" y="225" as="targetPoint" />
          </mxGeometry>
        </mxCell>
        <mxCell id="SPLY-4hhll68yxZ88iQ7-30" value="&lt;font color=&quot;#ffffff&quot;&gt;Creates&lt;/font&gt;" style="text;html=1;align=center;verticalAlign=middle;whiteSpace=wrap;rounded=0;rotation=-85;" vertex="1" parent="1">
          <mxGeometry x="16" y="347" width="102" height="30" as="geometry" />
        </mxCell>
        <mxCell id="SPLY-4hhll68yxZ88iQ7-32" value="&lt;font color=&quot;#ffffff&quot;&gt;Creates&lt;/font&gt;" style="text;html=1;align=center;verticalAlign=middle;whiteSpace=wrap;rounded=0;rotation=75;" vertex="1" parent="1">
          <mxGeometry x="115" y="362" width="102" height="30" as="geometry" />
        </mxCell>
        <mxCell id="SPLY-4hhll68yxZ88iQ7-33" value="&lt;font style=&quot;background-color: rgb(0, 0, 0);&quot; color=&quot;#ffffff&quot;&gt;1&lt;/font&gt;" style="text;whiteSpace=wrap;html=1;" vertex="1" parent="1">
          <mxGeometry x="839.001428571429" y="688.0028571428574" width="59" height="36" as="geometry" />
        </mxCell>
        <mxCell id="SPLY-4hhll68yxZ88iQ7-34" value="&lt;font style=&quot;background-color: rgb(0, 0, 0);&quot; color=&quot;#ffffff&quot;&gt;0..*&lt;/font&gt;" style="text;whiteSpace=wrap;html=1;" vertex="1" parent="1">
          <mxGeometry x="-164.9985714285711" y="459.00285714285735" width="59" height="36" as="geometry" />
        </mxCell>
        <mxCell id="SPLY-4hhll68yxZ88iQ7-35" value="&lt;font style=&quot;background-color: rgb(0, 0, 0);&quot; color=&quot;#ffffff&quot;&gt;1&lt;/font&gt;" style="text;whiteSpace=wrap;html=1;" vertex="1" parent="1">
          <mxGeometry x="482" y="538" width="21" height="30" as="geometry" />
        </mxCell>
        <mxCell id="SPLY-4hhll68yxZ88iQ7-37" value="&lt;font style=&quot;background-color: rgb(0, 0, 0);&quot; color=&quot;#ffffff&quot;&gt;0..*&lt;/font&gt;" style="text;whiteSpace=wrap;html=1;" vertex="1" parent="1">
          <mxGeometry x="363.0014285714289" y="532.0028571428574" width="59" height="36" as="geometry" />
        </mxCell>
        <mxCell id="SPLY-4hhll68yxZ88iQ7-39" value="&lt;font style=&quot;background-color: rgb(0, 0, 0);&quot; color=&quot;#ffffff&quot;&gt;1&lt;/font&gt;" style="text;whiteSpace=wrap;html=1;" vertex="1" parent="1">
          <mxGeometry x="196" y="516" width="21" height="30" as="geometry" />
        </mxCell>
        <mxCell id="SPLY-4hhll68yxZ88iQ7-46" value="&lt;font style=&quot;background-color: rgb(0, 0, 0);&quot; color=&quot;#ffffff&quot;&gt;1&lt;/font&gt;" style="text;whiteSpace=wrap;html=1;" vertex="1" parent="1">
          <mxGeometry x="491" y="175" width="21" height="30" as="geometry" />
        </mxCell>
        <mxCell id="SPLY-4hhll68yxZ88iQ7-48" value="&lt;font style=&quot;background-color: rgb(0, 0, 0);&quot; color=&quot;#ffffff&quot;&gt;1&lt;/font&gt;" style="text;whiteSpace=wrap;html=1;" vertex="1" parent="1">
          <mxGeometry x="829.001428571429" y="490.00285714285735" width="59" height="36" as="geometry" />
        </mxCell>
        <mxCell id="SPLY-4hhll68yxZ88iQ7-49" value="&lt;font style=&quot;background-color: rgb(0, 0, 0);&quot; color=&quot;#ffffff&quot;&gt;0..*&lt;/font&gt;" style="text;whiteSpace=wrap;html=1;" vertex="1" parent="1">
          <mxGeometry x="208.0014285714289" y="-132.99714285714265" width="59" height="36" as="geometry" />
        </mxCell>
        <mxCell id="SPLY-4hhll68yxZ88iQ7-51" value="&lt;font style=&quot;background-color: rgb(0, 0, 0);&quot; color=&quot;#ffffff&quot;&gt;0..*&lt;/font&gt;" style="text;whiteSpace=wrap;html=1;" vertex="1" parent="1">
          <mxGeometry x="579.001428571429" y="84.00285714285735" width="59" height="36" as="geometry" />
        </mxCell>
        <mxCell id="SPLY-4hhll68yxZ88iQ7-52" value="&lt;font style=&quot;background-color: rgb(0, 0, 0);&quot; color=&quot;#ffffff&quot;&gt;1&lt;/font&gt;" style="text;whiteSpace=wrap;html=1;" vertex="1" parent="1">
          <mxGeometry x="118" y="90" width="21" height="30" as="geometry" />
        </mxCell>
        <mxCell id="SPLY-4hhll68yxZ88iQ7-53" value="&lt;font style=&quot;background-color: rgb(0, 0, 0);&quot; color=&quot;#ffffff&quot;&gt;0..*&lt;/font&gt;" style="text;whiteSpace=wrap;html=1;" vertex="1" parent="1">
          <mxGeometry x="103.0014285714289" y="45.00285714285735" width="59" height="36" as="geometry" />
        </mxCell>
        <mxCell id="SPLY-4hhll68yxZ88iQ7-54" value="&lt;font style=&quot;background-color: rgb(0, 0, 0);&quot; color=&quot;#ffffff&quot;&gt;1&lt;/font&gt;" style="text;whiteSpace=wrap;html=1;" vertex="1" parent="1">
          <mxGeometry x="512.5" y="30" width="21" height="30" as="geometry" />
        </mxCell>
      </root>
    </mxGraphModel>
  </diagram>
</mxfile>
